<?xml version="1.0" encoding="UTF-8"?>
<svg width="200px" height="200px" viewBox="0 0 200 200" version="1.1" xmlns="http://www.w3.org/2000/svg" xmlns:xlink="http://www.w3.org/1999/xlink">
    <!-- Generator: Sketch 56.3 (81716) - https://sketch.com -->
    <title>dreadnought</title>
    <desc>Created with Sketch.</desc>
    <g id="dreadnought" stroke="none" stroke-width="1" fill="none" fill-rule="evenodd">
        <polygon id="v" stroke="#000000" fill="#959595" points="7.5 90 178.5 133.5 75 64.5"></polygon>
        <path d="M181,134.5 C182,133.5 168.166667,116.833333 139.5,84.5 L76,64.5 C145,112.166667 180,135.5 181,134.5 Z" id="Path-95" stroke="#000000" fill="#C4C4C4"></path>
        <polygon id="Path-96" stroke="#000000" fill="#292929" points="7 90.5 5.5 96.5 181 144 181 134.5"></polygon>
        <polygon id="Path-97" stroke="#000000" fill="#292929" points="181 134.5 184 141.5 181 144"></polygon>
        <polygon id="Path-98" stroke="#000000" fill="#656565" points="117 93 101.5 99 104.5 100.5 107.5 99.5 110 101 108.5 102 114.5 105 116 103.5 119 105.5 118 106.5 120.5 107.5 119.5 109 122 110 123 108.5 135.5 115 138.5 113.5 157 120"></polygon>
        <path d="M116.5,95 C116.776142,95 117,94.7761424 117,94.5 C117,94.2238576 116.776142,94 116.5,94 C116.223858,94 116,94.2238576 116,94.5 C116,94.7761424 116.223858,95 116.5,95 Z" id="Oval" fill="#000000"></path>
        <path d="M114.5,96 C114.776142,96 115,95.7761424 115,95.5 C115,95.2238576 114.776142,95 114.5,95 C114.223858,95 114,95.2238576 114,95.5 C114,95.7761424 114.223858,96 114.5,96 Z" id="Oval" fill="#000000"></path>
        <path d="M112.5,97 C112.776142,97 113,96.7761424 113,96.5 C113,96.2238576 112.776142,96 112.5,96 C112.223858,96 112,96.2238576 112,96.5 C112,96.7761424 112.223858,97 112.5,97 Z" id="Oval" fill="#000000"></path>
        <path d="M110.5,98 C110.776142,98 111,97.7761424 111,97.5 C111,97.2238576 110.776142,97 110.5,97 C110.223858,97 110,97.2238576 110,97.5 C110,97.7761424 110.223858,98 110.5,98 Z" id="Oval" fill="#000000"></path>
        <path d="M108.5,99 C108.776142,99 109,98.7761424 109,98.5 C109,98.2238576 108.776142,98 108.5,98 C108.223858,98 108,98.2238576 108,98.5 C108,98.7761424 108.223858,99 108.5,99 Z" id="Oval" fill="#000000"></path>
        <polygon id="Path-102" stroke="#000000" fill="#D8D8D8" points="71 80.5 72 89 121 84.5 120 78 97.5 74"></polygon>
        <polygon id="Path-94" stroke="#000000" fill="#C4C4C4" points="119 86.5 118 83.5 102.5 82 85 86.5 85 91.5 108.5 86.5"></polygon>
        <path d="M85,86.5 L76,84 L76,89 C82,90.6666667 85,91.5 85,91.5 C85,91.5 85,89.8333333 85,86.5 Z" id="Path-99" stroke="#000000" fill="#292929"></path>
        <path d="M101.5,82 L96,78 L77,84 C82,85.6666667 84.6666667,86.5 85,86.5 C85.3333333,86.5 90.8333333,85 101.5,82 Z" id="Path-100" stroke="#000000" fill="#656565"></path>
        <polygon id="Path-101" stroke="#000000" fill="#C4C4C4" points="97.5 78 116.5 80.5 118 83.5 102.5 82"></polygon>
        <polygon id="Path-103" stroke="#000000" fill="#292929" points="71 80.5 53.5 69 53.5 76.5 71 89"></polygon>
        <polygon id="Path-104" stroke="#000000" points="53.5 69 79.5 62.5 120 78 97.5 74 71 80.5"></polygon>
        <polygon id="Path-105" stroke="#000000" fill="#292929" points="59.5 62.5 71 70 71 75 58.5 67"></polygon>
        <polygon id="Path-106" stroke="#000000" fill="#C4C4C4" points="71 70 71 74 109 71.5 108.5 69 90 66"></polygon>
        <polygon id="Path-107" stroke="#000000" fill="#959595" points="60.5 62.5 73.5 59 89 66 71 70"></polygon>
        <polygon id="Path-108" stroke="#000000" fill="#C4C4C4" points="89 66 106 68 94 62.5 73.5 59"></polygon>
        <polygon id="Path-109" stroke="#000000" fill="#5B5B5B" points="70 56 71 61 80.5 61 80.5 57.5"></polygon>
        <polygon id="Path-110" stroke="#000000" fill="#C4C4C4" points="80.5 58.5 80.5 61 85 59.5 85 57.5"></polygon>
        <polygon id="Path-111" stroke="#000000" fill="#FFFFFF" points="81.5 58.5 63.5 55 63.5 50.5 82.5 47 101.5 50.5 101.5 55"></polygon>
        <path d="M89.5,48 C87.5,45.3333333 86.5,44 86.5,44 C86.5,44 83.1666667,44 76.5,44 L77.5,47.5 L82.5,47 L89.5,48 Z" id="Path-112" stroke="#000000" fill="#C4C4C4"></path>
        <polygon id="Path-113" stroke="#000000" fill="#2F2F2F" points="63.5 55 60 53.5 60 49 63.5 50.5"></polygon>
        <path d="M85.5,68.5 L85.5,71.5" id="Line" stroke="#000000" stroke-linecap="square"></path>
        <path d="M88.5,68.5 L88.5,71.5" id="Line-2" stroke="#000000" stroke-linecap="square"></path>
        <path d="M70,51 L70,54" id="Line-2" stroke="#000000" stroke-linecap="square"></path>
        <path d="M73,51 L73,54" id="Line-2" stroke="#000000" stroke-linecap="square"></path>
        <path d="M76,51 L76,54" id="Line-2" stroke="#000000" stroke-linecap="square"></path>
        <path d="M79,50 L79,53" id="Line-2" stroke="#000000" stroke-linecap="square"></path>
        <path d="M84,50 L84,53" id="Line-2" stroke="#000000" stroke-linecap="square"></path>
        <path d="M87,51 L87,54" id="Line-2" stroke="#000000" stroke-linecap="square"></path>
        <path d="M90,51 L90,54" id="Line-2" stroke="#000000" stroke-linecap="square"></path>
        <path d="M93,51 L93,54" id="Line-2" stroke="#000000" stroke-linecap="square"></path>
        <path d="M92,68 L92,71" id="Line-3" stroke="#000000" stroke-linecap="square"></path>
        <path d="M95,68.125 L95,70.875" id="Line-4" stroke="#000000" stroke-linecap="square"></path>
        <polygon id="Path-114" stroke="#000000" fill="#585858" points="61 49 73 46.5 76.5 48 64 50.5"></polygon>
        <polygon id="Path-115" stroke="#000000" fill="#959595" points="88.5 46 101 49.5 90 48.5"></polygon>
        <polygon id="Path-116" stroke="#000000" fill="#636363" points="65.5 44.5 65.5 49 68.5 48.5 68.5 44"></polygon>
        <circle id="Oval" stroke="#000000" fill="#2C2C2C" cx="66.5" cy="40.5" r="3.5"></circle>
        <polygon id="Path-116" stroke="#000000" fill="#636363" points="93.5 44.5 93.5 49 96.5 48.5 96.5 44"></polygon>
        <circle id="Oval" stroke="#000000" fill="#2C2C2C" cx="94.5" cy="40.5" r="3.5"></circle>
        <path d="M87.5,89 C87.7761424,89 88,88.7761424 88,88.5 C88,88.2238576 87.7761424,88 87.5,88 C87.2238576,88 87,88.2238576 87,88.5 C87,88.7761424 87.2238576,89 87.5,89 Z" id="Oval" fill="#000000"></path>
        <path d="M90.5,88 C90.7761424,88 91,87.7761424 91,87.5 C91,87.2238576 90.7761424,87 90.5,87 C90.2238576,87 90,87.2238576 90,87.5 C90,87.7761424 90.2238576,88 90.5,88 Z" id="Oval" fill="#000000"></path>
        <path d="M93.5,87 C93.7761424,87 94,86.7761424 94,86.5 C94,86.2238576 93.7761424,86 93.5,86 C93.2238576,86 93,86.2238576 93,86.5 C93,86.7761424 93.2238576,87 93.5,87 Z" id="Oval" fill="#000000"></path>
        <path d="M97.5,86 C97.7761424,86 98,85.7761424 98,85.5 C98,85.2238576 97.7761424,85 97.5,85 C97.2238576,85 97,85.2238576 97,85.5 C97,85.7761424 97.2238576,86 97.5,86 Z" id="Oval" fill="#000000"></path>
        <path d="M101.5,85 C101.776142,85 102,84.7761424 102,84.5 C102,84.2238576 101.776142,84 101.5,84 C101.223858,84 101,84.2238576 101,84.5 C101,84.7761424 101.223858,85 101.5,85 Z" id="Oval" fill="#000000"></path>
        <path d="M105.5,85 C105.776142,85 106,84.7761424 106,84.5 C106,84.2238576 105.776142,84 105.5,84 C105.223858,84 105,84.2238576 105,84.5 C105,84.7761424 105.223858,85 105.5,85 Z" id="Oval" fill="#000000"></path>
        <path d="M109.5,85 C109.776142,85 110,84.7761424 110,84.5 C110,84.2238576 109.776142,84 109.5,84 C109.223858,84 109,84.2238576 109,84.5 C109,84.7761424 109.223858,85 109.5,85 Z" id="Oval" fill="#000000"></path>
        <path d="M112.5,85 C112.776142,85 113,84.7761424 113,84.5 C113,84.2238576 112.776142,84 112.5,84 C112.223858,84 112,84.2238576 112,84.5 C112,84.7761424 112.223858,85 112.5,85 Z" id="Oval" fill="#000000"></path>
        <path d="M116.5,85 C116.776142,85 117,84.7761424 117,84.5 C117,84.2238576 116.776142,84 116.5,84 C116.223858,84 116,84.2238576 116,84.5 C116,84.7761424 116.223858,85 116.5,85 Z" id="Oval" fill="#000000"></path>
        <polygon id="Path-117" stroke="#000000" fill="#303030" points="82 68 82 73 78.5 73.5 78.5 68.5"></polygon>
        <polygon id="Path-117" stroke="#000000" fill="#303030" points="101.5 67.5 101.5 71.5 98 72 98 67"></polygon>
        <path d="M78.5,58 C79.6022098,54 80.6022098,52 81.5,52 C82.3977902,52 83.2311236,54 84,58 L81.5,58.5 L78.5,58 Z" id="Path-118" fill="#000000"></path>
        <polyline id="Line-8" stroke="#000000" stroke-linecap="square" points="51.5 80 76 96 102 92"></polyline>
        <polyline id="Line-9" stroke="#000000" stroke-linecap="square" points="124.5 82.25 128.75 88.5 119 89.5"></polyline>
        <path d="M36.5,83.5 L22.5,89" id="Line-5" stroke="#979797" stroke-linecap="square"></path>
        <polyline id="Path-119" stroke="#000000" points="38 82 20.5 88 49.5 96.5"></polyline>
        <polyline id="Path-120" stroke="#000000" points="133 85 138 86.5 143.5 93"></polyline>
        <polygon id="Path-121" stroke="#000000" fill="#373737" points="117.5 93 131 89.5 154 117.5"></polygon>
        <path d="M121.5,95 C121.776142,95 122,94.7761424 122,94.5 C122,94.2238576 121.776142,94 121.5,94 C121.223858,94 121,94.2238576 121,94.5 C121,94.7761424 121.223858,95 121.5,95 Z" id="Oval" fill="#000000"></path>
        <path d="M130.5,92 C130.776142,92 131,91.7761424 131,91.5 C131,91.2238576 130.776142,91 130.5,91 C130.223858,91 130,91.2238576 130,91.5 C130,91.7761424 130.223858,92 130.5,92 Z" id="Oval" fill="#000000"></path>
        <path d="M127.5,93 C127.776142,93 128,92.7761424 128,92.5 C128,92.2238576 127.776142,92 127.5,92 C127.223858,92 127,92.2238576 127,92.5 C127,92.7761424 127.223858,93 127.5,93 Z" id="Oval" fill="#000000"></path>
        <path d="M124.5,94 C124.776142,94 125,93.7761424 125,93.5 C125,93.2238576 124.776142,93 124.5,93 C124.223858,93 124,93.2238576 124,93.5 C124,93.7761424 124.223858,94 124.5,94 Z" id="Oval" fill="#000000"></path>
        <path d="M83,100 C83,100 98.8333333,105.666667 130.5,117" id="Path-122" stroke="#000000"></path>
        <path d="M44.5,80.5 L74.5,98.5" id="Path-123" stroke="#000000"></path>
        <path d="M172,125.5 L147.5,98" id="Path-124" stroke="#000000"></path>
    </g>
</svg>