<?xml version="1.0" encoding="UTF-8"?>
<svg width="200px" height="200px" viewBox="0 0 200 200" version="1.1" xmlns="http://www.w3.org/2000/svg" xmlns:xlink="http://www.w3.org/1999/xlink">
    <!-- Generator: Sketch 56.3 (81716) - https://sketch.com -->
    <title>millennium falcon</title>
    <desc>Created with Sketch.</desc>
    <g id="millennium-falcon" stroke="none" stroke-width="1" fill="none" fill-rule="evenodd">
        <path d="M175,146 L178,152 L167.5,158.5 C164.833333,160.5 159.666667,160.5 152,158.5 C144.333333,156.5 112.833333,147.5 57.5,131.5 L80,125 L167,152 L175,146 Z" id="Path-83" stroke="#000000" fill="#5B5B5B"></path>
        <path d="M198,130.5 C198.617655,134.502437 198.450988,137.33577 197.5,139 C196.549012,140.66423 194.049012,142.497563 190,144.5 L186,144.5 L155.5,125.5 L145,131.5 L128.5,124 L156.5,106 L198,130.5 Z" id="Path-82" stroke="#000000" fill="#5B5B5B"></path>
        <path d="M190.5,135 L187.5,144.5" id="Line-7" stroke="#000000" stroke-linecap="square"></path>
        <path d="M153,86 C154,87 155,88.6666667 156,91 C157,93.3333333 171.333333,106.5 199,130.5 L190,135 L139.5,108 L153,86 Z" id="Path-80" stroke="#000000" fill="#C4C4C4"></path>
        <polygon id="Path-81" stroke="#000000" fill="#C4C4C4" points="123 120 175 146 167 152 84 130"></polygon>
        <path d="M77.5,133 C119.197499,133 156.5,116.658393 156.5,96.5 C156.5,76.3416066 119.197499,60 77.5,60 C35.8025014,60 2,76.3416066 2,96.5 C2,116.658393 35.8025014,133 77.5,133 Z" id="Oval" stroke="#000000" stroke-width="2" fill="#C4C4C4"></path>
        <path d="M95,78 L145,77.5 L153,86 L143.5,108.5 L158.5,118 L143.5,126.5 L123,118 C106.362716,122.64434 92.696049,124.64434 82,124 C71.303951,123.35566 57.303951,119.688993 40,113 L73,85 L95,78 Z" id="Path-76" stroke="#000000" fill="#C4C4C4"></path>
        <ellipse id="Oval" stroke="#000000" fill="#D8D8D8" cx="133.5" cy="86" rx="5.5" ry="5"></ellipse>
        <path d="M19.636528,113.065139 C22.7567827,111.57384 25.8770375,110.082541 28.9972922,108.591242" id="Path-65" stroke="#000000"></path>
        <path d="M12.1607165,101.873908 C14.0064624,100.50023 15.8522084,99.1265506 17.6979543,97.7528717" id="Path-66" stroke="#000000"></path>
        <path d="M19.6938776,114.5 L27.3265306,120 L48.5,131.5 L49.3979592,146 L27.3265306,129.5 L17,123 C18.6139677,122.283304 19.5119269,121.283304 19.6938776,120 C19.8758282,118.716696 19.8758282,116.883363 19.6938776,114.5 Z" id="Path-63" stroke="#000000" fill="#959595"></path>
        <path d="M17.4151465,99.6629052 C26.7662176,100.053444 26.3370577,99.7421466 28.1523283,108.749943" id="Path-67" stroke="#000000"></path>
        <ellipse id="Oval" stroke="#000000" fill="#5B5B5B" transform="translate(13.834546, 112.363135) rotate(-17.000000) translate(-13.834546, -112.363135) " cx="13.8345465" cy="112.363135" rx="4.5" ry="11"></ellipse>
        <polyline id="Path-56" stroke="#000000" points="105.589101 78.4177109 105.589101 77.1265791 105.589101 74.4582613"></polyline>
        <path d="M111.136617,78.2090367 C111.055291,76.6707743 110.973965,75.1325119 110.892639,73.5942496" id="Path-57" stroke="#000000"></path>
        <path d="M116.746547,78.4344174 C116.591249,76.3111109 116.435952,74.1878045 116.280655,72.064498" id="Path-58" stroke="#000000"></path>
        <path d="M122.736944,77.8399168 C122.552857,75.5407189 122.36877,73.2415209 122.184682,70.942323" id="Path-59" stroke="#000000"></path>
        <path d="M128.711895,77.9562321 C128.702649,74.9799466 128.693403,72.003661 128.684156,69.0273755" id="Path-60" stroke="#000000"></path>
        <path d="M102,78 C113.531294,77.5543872 121.468706,78.4456128 133,78 L102,78 Z" id="Path-61" stroke="#000000"></path>
        <path d="M27.2358486,96.5220099 C27.6195435,100.556877 28.0032384,104.591744 28.3869333,108.62661" id="Path-50" stroke="#000000"></path>
        <path d="M32.4220825,95.1693371 C33.7554158,98.1693371 35.0887491,101.169337 36.4220825,104.169337" id="Path-51" stroke="#000000"></path>
        <path d="M42.6378536,91.9286821 C43.7045198,94.5928066 44.771186,97.2569311 45.8378523,99.9210556" id="Path-52" stroke="#000000"></path>
        <path d="M53.6879283,88.0485355 C54.700386,90.0003257 55.7128436,91.952116 56.7253013,93.9039062" id="Path-53" stroke="#000000"></path>
        <path d="M63.8876063,84.8146565 C64.3224041,86.0936396 64.7572018,87.3726226 65.1919996,88.6516057" id="Path-54" stroke="#000000"></path>
        <polygon id="Path-49" stroke="#000000" fill="#959595" points="100.5 75 134 69 128.5 66 122 66 96 73.5"></polygon>
        <ellipse id="Oval" stroke="#000000" stroke-width="2" fill="#959595" cx="83.5" cy="77.5" rx="18.5" ry="8.5"></ellipse>
        <polygon id="Path-48" stroke="#000000" fill="#959595" points="65 77.5 17.5 91.5 27.5 96.5 69.5 82"></polygon>
        <path d="M70.5,86 L28.3869333,108.62661" id="Line-4" stroke="#000000" stroke-linecap="square"></path>
        <path d="M17.5,92 L17.5,100" id="Path-55" stroke="#000000"></path>
        <polygon id="Path-62" stroke="#000000" fill="#959595" points="64 91 30 119.5 53.5 135 76.5 92"></polygon>
        <path d="M74,139 L67,124 C57.7077241,124.758552 51.5410574,126.091886 48.5,128 C45.4589426,129.908114 43.1256092,133.908114 41.5,140 L46,147 L65,148 L74,139 Z" id="Path-64" stroke="#000000" fill="#5B5B5B"></path>
        <path d="M46.5,130.25 L62,139.5" id="Line-2" stroke="#000000" stroke-linecap="square"></path>
        <path d="M42.5,139.5 L61.5,142.5" id="Line-3" stroke="#000000" stroke-linecap="square"></path>
        <ellipse id="Oval" stroke="#000000" fill="#5B5B5B" cx="68" cy="141.5" rx="6" ry="6.5"></ellipse>
        <path d="M60.5,125.5 L66.5,135" id="Line-5" stroke="#000000" stroke-linecap="square"></path>
        <path d="M52.5,126.5 L63.5,136.5" id="Line" stroke="#000000" stroke-linecap="square"></path>
        <polygon id="Rectangle" fill="#A60000" transform="translate(80.866583, 64.578848) rotate(-45.000000) translate(-80.866583, -64.578848) " points="78.7834176 63 83.7331651 63 83.1578947 66.1576957 78 66.1576957"></polygon>
        <path d="M82.482199,79.2415946 L84.6035193,80.6558082 L83.4570399,86.7796304 C82.3023394,86.1129638 81.2919764,85.5296304 80.425951,85.0296304 C79.5599256,84.5296304 78.4885584,83.7186262 77.2118494,82.5966177 L82.482199,79.2415946 Z" id="Rectangle" fill="#A60000" transform="translate(80.907684, 83.010613) rotate(-30.000000) translate(-80.907684, -83.010613) "></path>
        <path d="M95.2054152,74.3186172 L97.3486789,74.9561286 L95.2327537,85.9912027 C94.6108804,85.6271953 94.0316525,85.2216155 93.4950699,84.7744633 C92.9584872,84.3273111 92.0414765,82.965865 90.7440375,80.6901248 L95.2054152,74.3186172 Z" id="Rectangle" fill="#A70000" transform="translate(94.046358, 80.154910) rotate(-80.000000) translate(-94.046358, -80.154910) "></path>
        <polygon id="Rectangle" fill="#A60000" transform="translate(80.866583, 64.578848) rotate(-45.000000) translate(-80.866583, -64.578848) " points="78.7834176 63 83.7331651 63 83.1578947 66.1576957 78 66.1576957"></polygon>
        <polygon id="Rectangle" fill="#A60000" transform="translate(41.777615, 77.299704) rotate(-6.000000) translate(-41.777615, -77.299704) " points="38.1440807 74.7997044 46.7776146 74.7997044 45.7742066 79.7997044 36.7776146 79.7997044"></polygon>
        <ellipse id="Oval" stroke="#000000" fill="#525050" cx="83.5" cy="76.5" rx="5.5" ry="2.5"></ellipse>
        <polygon id="Rectangle" fill="#A60000" transform="translate(157.382178, 111.942393) rotate(24.000000) translate(-157.382178, -111.942393) " points="154.199364 109 161.764356 110.010394 160.650666 114.884785 153 113.723955"></polygon>
        <polygon id="Rectangle" fill="#A60000" transform="translate(133.382178, 130.942393) rotate(24.000000) translate(-133.382178, -130.942393) " points="130.199364 128 137.764356 129.010394 136.650666 133.884785 129 132.723955"></polygon>
        <path d="M167,152 L167,158.5" id="Path-84" stroke="#000000"></path>
        <polygon id="Rectangle" fill="#A60000" points="74.5 99.5 82 99.5 82 102.5 73 102.5"></polygon>
        <polygon id="Rectangle" fill="#A60000" points="72.8333333 103 82 103 82 106 71 106"></polygon>
        <path d="M63.5,78 L7.5,84" id="Path-68" stroke="#000000"></path>
        <polygon id="Path-69" stroke="#000000" points="84 100.5 84 106 95 106 92 100.5"></polygon>
        <path d="M78.5,69 L88,60" id="Path-70" stroke="#000000"></path>
        <path d="M78.5,69 L88,60" id="Path-70" stroke="#000000"></path>
        <ellipse id="Oval" stroke="#000000" fill="#959595" cx="139.5" cy="79" rx="8.5" ry="13"></ellipse>
        <path d="M142.924242,77.6919193 L148,76 L142.924242,77.6919193 L144.353969,78.0431312 L139.680975,80.7195328 L139.124283,76.7584605 L142.924242,77.6919193 Z" id="Triangle-2" stroke="#000000" fill="#D8D8D8"></path>
        <path d="M142.5,67.5 L140.5,76.87011" id="Line-6" stroke="#000000" stroke-linecap="square"></path>
        <path d="M139.5,77 L134,69.5" id="Path-72" stroke="#000000"></path>
        <path d="M139,79 L131.5,80" id="Path-73" stroke="#000000"></path>
        <path d="M139.5,80.5 L135,89.5" id="Path-74" stroke="#000000"></path>
        <path d="M146,87.5 L141,80.5" id="Path-75" stroke="#000000"></path>
        <path d="M123,118 L86,87 C90.3306798,85.6907532 93.3306798,84.6907532 95,84 C96.6693202,83.3092468 98.5026536,82.3092468 100.5,81 L143.5,108.5" id="Path-77" stroke="#000000"></path>
        <polygon id="Path-78" stroke="#000000" points="102 83 93.5 88 141.5 122 152 114.5"></polygon>
        <polygon id="Path-79" stroke="#000000" points="102 86 99 87.5 141.5 118 146 114.5"></polygon>
        <path d="M167,152 L167,158.5" id="Path-84" stroke="#000000"></path>
        <path d="M167,152 L167,158.5" id="Path-84" stroke="#000000"></path>
        <polyline id="Path-85" stroke="#000000" points="170.5 144.5 167 148.5 131 139 129.5 141.5 122.5 139.5 126 135 132.5 137 131 139"></polyline>
        <polyline id="Path-86" stroke="#000000" points="187.5 133 193.5 130 169 108.5"></polyline>
        <polyline id="Path-86" stroke="#000000" points="107.5 118.5 113.5 115.5 89 94"></polyline>
        <polyline id="Path-87" stroke="#000000" points="109 83 141.5 103 148 92"></polyline>
        <path d="M71,109.5 L65,118.5 C68.3478551,119.208018 71.0145218,119.708018 73,120 C74.9854782,120.291982 77.9854782,120.625315 82,121" id="Path-88" stroke="#000000"></path>
        <path d="M14,80.5 C14,80.5 23.7520071,72.694748 44,67 C50.0962848,65.2854199 61.4296182,63.7854199 78,62.5" id="Path-89" stroke="#000000"></path>
        <polyline id="Path-90" stroke="#000000" points="58 64.5 58 69 76 66.5"></polyline>
        <path d="M8.5,86.5 C6.63385453,90.6247336 5.63385453,93.7914002 5.5,96 C5.36614547,98.2085998 6.03281214,100.541933 7.5,103" id="Path-91" stroke="#000000"></path>
        <polyline id="Path-92" stroke="#000000" points="49 69 48.5 77.5 61.5 76.5"></polyline>
        <path d="M86,66 L89,63.5 C92.2083215,63.7771301 95.2083215,64.1104635 98,64.5 C100.791679,64.8895365 104.958345,65.5562032 110.5,66.5" id="Path-93" stroke="#000000"></path>
    </g>
</svg>