<?xml version="1.0" encoding="UTF-8"?>
<svg width="200px" height="200px" viewBox="0 0 200 200" version="1.1" xmlns="http://www.w3.org/2000/svg" xmlns:xlink="http://www.w3.org/1999/xlink">
    <!-- Generator: Sketch 56.3 (81716) - https://sketch.com -->
    <title>x-wing</title>
    <desc>Created with Sketch.</desc>
    <g id="x-wing" stroke="none" stroke-width="1" fill="none" fill-rule="evenodd">
        <g id="Group" transform="translate(104.000000, 98.500000) scale(-1, 1) translate(-104.000000, -98.500000) translate(12.000000, 35.000000)">
            <path d="M121.136623,50.9496284 L119.136623,44.4496284 C120.031966,43.6893967 120.942618,43.2431408 121.868579,43.1108607 C122.794539,42.9785806 124.21722,43.0915032 126.136623,43.4496284 L128.136623,48.9496284" id="Path-42" stroke="#000000" fill="#959595" transform="translate(123.636623, 47.003484) rotate(-30.000000) translate(-123.636623, -47.003484) "></path>
            <circle id="Oval" stroke="#000000" fill="#858585" transform="translate(126.725721, 50.353958) rotate(-30.000000) translate(-126.725721, -50.353958) " cx="126.725721" cy="50.353958" r="3.5"></circle>
            <polygon id="Path-41" stroke="#000000" fill="#959595" transform="translate(146.403924, 68.437606) rotate(-30.000000) translate(-146.403924, -68.437606) " points="138.403924 44.4376058 154.403924 93.9376058 140.903924 42.9376058"></polygon>
            <path d="M54,14.5 C54,14.5 51.3333333,11.5 46,5.5 C45.9784603,3.92369371 46.3117936,2.75702704 47,2 C47.6882064,1.24297296 49.0215397,0.576306294 51,0 L61,13 C56.3333333,14 54,14.5 54,14.5 Z" id="Path-47" stroke="#000000" fill="#959595"></path>
            <path d="M82.6015296,16.5 C82.6015296,16.5 79.4017388,13.3965517 73.0021571,7.18965517 C72.9763111,5.55899349 73.376285,4.35209694 74.2020787,3.56896552 C75.0278724,2.7858341 76.6277678,2.09617893 79.0017649,1.5 L91.0009805,14.9482759 C85.4013466,15.9827586 82.6015296,16.5 82.6015296,16.5 Z" id="Path-47" stroke="#000000" fill="#959595"></path>
            <polygon id="Path-46" stroke="#000000" fill="#959595" points="100.5 44 130 48.5 130 46 100 41"></polygon>
            <path d="M96.5,32.5 C96.8333333,32.5 104.666667,34.6666667 120,39 L130,46 L97,40.5 C96.3333333,35.1666667 96.1666667,32.5 96.5,32.5 Z" id="Path-45" stroke="#000000" fill="#959595"></path>
            <polygon id="Path-43" stroke="#000000" fill="#959595" points="95.5 17.5 126.5 16 136 22.5 103 29"></polygon>
            <polygon id="Path-44" stroke="#000000" fill="#959595" points="134 21.5 137 24.5 102.5 32.5 101.5 28.5"></polygon>
            <path d="M90.6572562,33.1450271 L80.6572562,19.1450271 C81.1523687,16.2984484 81.985702,14.465115 83.1572562,13.6450271 C84.3288104,12.8249391 86.8288104,12.3249391 90.6572562,12.1450271 L101.157256,24.1450271" id="Path-36" stroke="#000000" fill="#959595" transform="translate(90.907256, 22.645027) rotate(-9.000000) translate(-90.907256, -22.645027) "></path>
            <ellipse id="Oval" stroke="#000000" fill="#545454" transform="translate(97.759723, 29.153191) rotate(-9.000000) translate(-97.759723, -29.153191) " cx="97.7597226" cy="29.1531915" rx="6" ry="7.5"></ellipse>
            <ellipse id="Oval" fill="#000000" transform="translate(97.759723, 29.153191) rotate(-9.000000) translate(-97.759723, -29.153191) " cx="97.7597226" cy="29.1531915" rx="2" ry="2.5"></ellipse>
            <path d="M97.681588,29.5134985 L93.681588,34.5134985" id="Line-2" stroke="#000000" stroke-linecap="square" transform="translate(95.681588, 32.013498) rotate(-9.000000) translate(-95.681588, -32.013498) "></path>
            <path d="M97.0557676,21.7085939 L97.0557676,27.2085939" id="Line" stroke="#000000" stroke-linecap="square" transform="translate(97.055768, 24.708594) rotate(-9.000000) translate(-97.055768, -24.708594) "></path>
            <path d="M98.0448903,28.7765906 C98.0448903,28.7765906 99.5448903,30.1099239 102.54489,32.7765906" id="Path-35" stroke="#000000" transform="translate(100.294890, 30.776591) rotate(-9.000000) translate(-100.294890, -30.776591) "></path>
            <path d="M55.5163674,55.4741808 L45.5163674,41.4741808 C46.0114798,38.6276021 46.8448132,36.7942688 48.0163674,35.9741808 C49.1879216,35.1540929 51.6879216,34.6540929 55.5163674,34.4741808 L66.0163674,46.4741808" id="Path-36" stroke="#000000" fill="#959595" transform="translate(55.766367, 44.974181) rotate(-9.000000) translate(-55.766367, -44.974181) "></path>
            <ellipse id="Oval" stroke="#000000" fill="#545454" transform="translate(62.618834, 51.482345) rotate(-9.000000) translate(-62.618834, -51.482345) " cx="62.6188338" cy="51.4823452" rx="6" ry="7.5"></ellipse>
            <ellipse id="Oval" fill="#000000" transform="translate(62.618834, 51.482345) rotate(-9.000000) translate(-62.618834, -51.482345) " cx="62.6188338" cy="51.4823452" rx="2" ry="2.5"></ellipse>
            <path d="M62.5406991,51.8426522 L58.5406991,56.8426522" id="Line-2" stroke="#000000" stroke-linecap="square" transform="translate(60.540699, 54.342652) rotate(-9.000000) translate(-60.540699, -54.342652) "></path>
            <path d="M61.9148787,44.0377477 L61.9148787,49.5377477" id="Line" stroke="#000000" stroke-linecap="square" transform="translate(61.914879, 47.037748) rotate(-9.000000) translate(-61.914879, -47.037748) "></path>
            <path d="M62.9040015,51.1057444 C62.9040015,51.1057444 64.4040015,52.4390777 67.4040015,55.1057444" id="Path-35" stroke="#000000" transform="translate(65.154002, 53.105744) rotate(-9.000000) translate(-65.154002, -53.105744) "></path>
            <polygon id="Path-28" stroke="#000000" fill="#959595" points="62.5 13 73.5 13 98.5 36 106 51.5 155.5 113.5 159.5 125.5 153 127 124 106 76.5 54.5 55.5 42.5"></polygon>
            <polygon id="Path-29" stroke="#000000" fill="#BA0000" points="76.5 41.5 133 100 127 103.5 74 47"></polygon>
            <polyline id="Path-30" stroke="#D85F00" points="87 47 95.5 52.5 117 77"></polyline>
            <path d="M97.5,52 L136,97.5" id="Path-31" stroke="#000000"></path>
            <path d="M97,52 C103,51.6666667 106,51.5 106,51.5 C106,51.5 103.166667,46.3333333 97.5,36 C95.5,33.6666667 94.3333333,32.5 94,32.5 C93.6666667,32.5 89.8333333,32.6666667 82.5,33 L83,42.5 L97,52 Z" id="Path-32" stroke="#000000" fill="#063090"></path>
            <polyline id="Path-33" stroke="#000000" points="83 33.5 87.5 37 97.5 51.5"></polyline>
            <polyline id="Path-34" stroke="#000000" points="83 42.5 87 37 98 36.5"></polyline>
            <path d="M67.5,37 L64.5,39.5 C23.5,50.8333333 3,56.1666667 3,55.5 C3,54.8333333 2,51 0,44 L18.5,37 L57.5,26.5 L67.5,37 Z" id="Path-37" stroke="#000000" fill="#959595"></path>
            <path d="M61,32.5 L51,18.5 C51.4951125,15.6534213 52.3284458,13.8200879 53.5,13 C54.6715542,12.1799121 57.1715542,11.6799121 61,11.5 L71.5,23.5" id="Path-36" stroke="#000000" fill="#959595"></path>
            <polygon id="Path-39" stroke="#000000" fill="#959595" points="49.2272727 17.3076923 1.5 13 3.40909091 20 13.5909091 25.3846154 64.5 34"></polygon>
            <path d="M52,16 L61,31 L46,27.5 L39,17 C39.2002606,15.4461338 40.033594,14.6128005 41.5,14.5 C42.966406,14.3871995 46.466406,14.8871995 52,16 Z" id="Path-38" stroke="#000000" fill="#959595"></path>
            <path d="M3.8631978,18.244592 L43.376808,25.915515" id="Line-3" stroke="#D27300" stroke-linecap="square"></path>
            <ellipse id="Oval" stroke="#000000" fill="#545454" cx="67" cy="29.5" rx="6" ry="7.5"></ellipse>
            <ellipse id="Oval" fill="#000000" cx="67" cy="29.5" rx="2" ry="2.5"></ellipse>
            <path d="M66.5,29.5 L62.5,34.5" id="Line-2" stroke="#000000" stroke-linecap="square"></path>
            <path d="M67,22 L67,27.5" id="Line" stroke="#000000" stroke-linecap="square"></path>
            <path d="M67,29.5 C67,29.5 68.5,30.8333333 71.5,33.5" id="Path-35" stroke="#000000"></path>
            <path d="M46,27.5 L3,19.5" id="Path-40" stroke="#000000"></path>
            <polyline id="Path-42" stroke="#000000" fill="#959595" points="5 62 3 55.5 10 54.5 12 60"></polyline>
            <circle id="Oval" stroke="#000000" fill="#858585" cx="8.5" cy="62.5" r="3.5"></circle>
            <polygon id="Path-41" stroke="#000000" fill="#959595" points="8.5 64 24.5 113.5 11 62.5"></polygon>
            <path d="M3.72925718,10.5942822 L1.72925718,4.09428224 C2.62460039,3.33405052 3.53525223,2.88779463 4.46121271,2.75551456 C5.38717319,2.62323449 6.80985468,2.73615705 8.72925718,3.09428224 L10.7292572,8.59428224" id="Path-42" stroke="#000000" fill="#959595" transform="translate(6.229257, 6.648138) rotate(-7.000000) translate(-6.229257, -6.648138) "></path>
            <circle id="Oval" stroke="#000000" fill="#858585" transform="translate(7.763652, 10.939272) rotate(-7.000000) translate(-7.763652, -10.939272) " cx="7.76365203" cy="10.939272" r="3.5"></circle>
            <polygon id="Path-41" stroke="#000000" fill="#959595" transform="translate(18.811690, 35.274244) rotate(-7.000000) translate(-18.811690, -35.274244) " points="10.8116895 11.2742441 26.8116895 60.7742441 13.3116895 9.77424413"></polygon>
            <path d="M135.317369,26.7757148 L122.66688,8.94671124 C122.951777,7.60219546 123.613009,6.62666426 124.650576,6.02011765 C125.688143,5.41357103 126.806123,5.40254516 128.004515,5.98704002 L142.388198,24.3272115" id="Path-42" stroke="#000000" fill="#959595" transform="translate(132.527539, 16.166250) rotate(-26.000000) translate(-132.527539, -16.166250) "></path>
            <path d="M143.832169,25.6717919 C146.024617,25.4698928 147.583718,23.9732239 147.31452,22.3288882 C147.045321,20.6845525 145.049762,19.5152266 142.857315,19.7171256 C140.664867,19.9190246 139.105766,21.4156936 139.374965,23.0600293 C139.644163,24.704365 141.639722,25.8736909 143.832169,25.6717919 Z" id="Oval" stroke="#000000" fill="#858585" transform="translate(143.344742, 22.694459) rotate(-26.000000) translate(-143.344742, -22.694459) "></path>
            <polygon id="Path-41" stroke="#000000" fill="#959595" transform="translate(163.672371, 36.097229) rotate(-26.000000) translate(-163.672371, -36.097229) " points="151.277407 16.7511707 176.067335 57.0546058 153.794853 15.1398529"></polygon>
            <path d="M124,9.86570435 L141.5,18.5" id="Line-3" stroke="#D27300" stroke-linecap="square"></path>
            <path d="M145.25,23.8171478 L161,33.5" id="Line-3" stroke="#D27300" stroke-linecap="square"></path>
            <path d="M9,12.8657043 L17.5,30.0246022" id="Line-3" stroke="#D27300" stroke-linecap="square"></path>
            <path d="M10.25,64.0794489 L15.5,83.5" id="Line-3" stroke="#D27300" stroke-linecap="square"></path>
            <path d="M60.7820846,12.1448622 L69,20.8069221" id="Line-3" stroke="#D27300" stroke-linecap="square"></path>
            <path d="M89.1089577,13.8310299 L97.0166589,20.8069221" id="Line-3" stroke="#D27300" stroke-linecap="square"></path>
            <path d="M104.859111,27 L131.506809,20.8069221" id="Line-3" stroke="#D27300" stroke-linecap="square"></path>
        </g>
    </g>
</svg>